<mxfile host="Electron" agent="Mozilla/5.0 (Macintosh; Intel Mac OS X 10_15_7) AppleWebKit/537.36 (KHTML, like Gecko) draw.io/25.0.2 Chrome/128.0.6613.186 Electron/32.2.5 Safari/537.36" version="25.0.2" pages="3">
  <diagram name="Basic" id="kt77kOls50Z27oAu0QWd">
    <mxGraphModel dx="1927" dy="864" grid="1" gridSize="10" guides="1" tooltips="1" connect="1" arrows="1" fold="1" page="1" pageScale="1" pageWidth="827" pageHeight="1169" math="0" shadow="0">
      <root>
        <mxCell id="0" />
        <mxCell id="1" style="" parent="0" />
        <mxCell id="Y6LKRXekxdMPDzCNQJSn-25" value="" style="shape=umlActor;verticalLabelPosition=bottom;verticalAlign=top;html=1;outlineConnect=0;fontSize=12;strokeWidth=2;strokeColor=#3F1069;rotation=15;fillColor=#FFCC99;" vertex="1" parent="1">
          <mxGeometry x="-480" y="400" width="20" height="40" as="geometry" />
        </mxCell>
        <mxCell id="Y6LKRXekxdMPDzCNQJSn-77" style="edgeStyle=none;rounded=0;orthogonalLoop=1;jettySize=auto;html=1;exitX=1;exitY=0.5;exitDx=0;exitDy=0;entryX=0;entryY=0.5;entryDx=0;entryDy=0;strokeWidth=4;endArrow=blockThin;endFill=1;" edge="1" parent="1" source="Y6LKRXekxdMPDzCNQJSn-38" target="Y6LKRXekxdMPDzCNQJSn-39">
          <mxGeometry relative="1" as="geometry" />
        </mxCell>
        <mxCell id="Y6LKRXekxdMPDzCNQJSn-38" value="&lt;div&gt;&lt;br&gt;&lt;/div&gt;" style="ellipse;whiteSpace=wrap;html=1;aspect=fixed;strokeColor=#6c8ebf;fillColor=#dae8fc;strokeWidth=3;verticalAlign=middle;labelPosition=center;verticalLabelPosition=bottom;align=center;" vertex="1" parent="1">
          <mxGeometry x="-660" y="340" width="40" height="40" as="geometry" />
        </mxCell>
        <mxCell id="Y6LKRXekxdMPDzCNQJSn-39" value="&lt;div&gt;&lt;br&gt;&lt;/div&gt;" style="ellipse;whiteSpace=wrap;html=1;aspect=fixed;strokeColor=#6c8ebf;fillColor=#dae8fc;strokeWidth=3;verticalAlign=middle;labelPosition=center;verticalLabelPosition=bottom;align=center;" vertex="1" parent="1">
          <mxGeometry x="-580" y="340" width="40" height="40" as="geometry" />
        </mxCell>
        <mxCell id="Y6LKRXekxdMPDzCNQJSn-40" value="&lt;div&gt;&lt;br&gt;&lt;/div&gt;" style="ellipse;whiteSpace=wrap;html=1;aspect=fixed;strokeColor=#d79b00;fillColor=#ffe6cc;strokeWidth=3;verticalAlign=middle;labelPosition=center;verticalLabelPosition=bottom;align=center;" vertex="1" parent="1">
          <mxGeometry x="-500" y="340" width="40" height="40" as="geometry" />
        </mxCell>
        <mxCell id="Y6LKRXekxdMPDzCNQJSn-41" value="&lt;span style=&quot;font-size: 28px;&quot;&gt;authoring&lt;/span&gt;" style="text;html=1;align=left;verticalAlign=middle;whiteSpace=wrap;rounded=0;rotation=-45;" vertex="1" parent="1">
          <mxGeometry x="-650" y="230" width="190" height="30" as="geometry" />
        </mxCell>
        <mxCell id="Y6LKRXekxdMPDzCNQJSn-42" value="&lt;span style=&quot;font-size: 28px;&quot;&gt;linting&lt;/span&gt;" style="text;html=1;align=left;verticalAlign=middle;whiteSpace=wrap;rounded=0;rotation=-45;" vertex="1" parent="1">
          <mxGeometry x="-560" y="230" width="190" height="30" as="geometry" />
        </mxCell>
        <mxCell id="Y6LKRXekxdMPDzCNQJSn-43" value="&lt;span style=&quot;font-size: 28px;&quot;&gt;&lt;b&gt;Pull Request&lt;/b&gt;&lt;/span&gt;" style="text;html=1;align=left;verticalAlign=middle;whiteSpace=wrap;rounded=0;rotation=-45;" vertex="1" parent="1">
          <mxGeometry x="-470" y="230" width="190" height="30" as="geometry" />
        </mxCell>
        <mxCell id="Y6LKRXekxdMPDzCNQJSn-44" value="&lt;div&gt;&lt;br&gt;&lt;/div&gt;" style="ellipse;whiteSpace=wrap;html=1;aspect=fixed;strokeColor=#6c8ebf;fillColor=#dae8fc;strokeWidth=3;verticalAlign=middle;labelPosition=center;verticalLabelPosition=bottom;align=center;" vertex="1" parent="1">
          <mxGeometry x="-420" y="340" width="40" height="40" as="geometry" />
        </mxCell>
        <mxCell id="Y6LKRXekxdMPDzCNQJSn-45" value="&lt;span style=&quot;font-size: 28px;&quot;&gt;merging&lt;/span&gt;" style="text;html=1;align=left;verticalAlign=middle;whiteSpace=wrap;rounded=0;rotation=-45;" vertex="1" parent="1">
          <mxGeometry x="-390" y="230" width="190" height="30" as="geometry" />
        </mxCell>
        <mxCell id="Y6LKRXekxdMPDzCNQJSn-52" value="&lt;div&gt;&lt;br&gt;&lt;/div&gt;" style="ellipse;whiteSpace=wrap;html=1;aspect=fixed;strokeColor=#6c8ebf;fillColor=#dae8fc;strokeWidth=3;verticalAlign=middle;labelPosition=center;verticalLabelPosition=bottom;align=center;" vertex="1" parent="1">
          <mxGeometry x="-260" y="340" width="40" height="40" as="geometry" />
        </mxCell>
        <mxCell id="Y6LKRXekxdMPDzCNQJSn-53" value="&lt;span style=&quot;font-size: 28px;&quot;&gt;apply&lt;/span&gt;" style="text;html=1;align=left;verticalAlign=middle;whiteSpace=wrap;rounded=0;rotation=-45;" vertex="1" parent="1">
          <mxGeometry x="-230" y="230" width="190" height="30" as="geometry" />
        </mxCell>
        <mxCell id="Y6LKRXekxdMPDzCNQJSn-59" value="" style="shape=umlActor;verticalLabelPosition=bottom;verticalAlign=top;html=1;outlineConnect=0;fontSize=12;strokeWidth=2;strokeColor=#3F1069;rotation=-15;fillColor=#99CCFF;" vertex="1" parent="1">
          <mxGeometry x="-650" y="400" width="20" height="40" as="geometry" />
        </mxCell>
        <mxCell id="Y6LKRXekxdMPDzCNQJSn-67" value="" style="shape=umlActor;verticalLabelPosition=bottom;verticalAlign=top;html=1;outlineConnect=0;fontSize=12;strokeWidth=2;strokeColor=#3F1069;rotation=-15;fillColor=#99CCFF;" vertex="1" parent="1">
          <mxGeometry x="-510" y="400" width="20" height="40" as="geometry" />
        </mxCell>
        <mxCell id="Y6LKRXekxdMPDzCNQJSn-68" value="" style="shape=umlActor;verticalLabelPosition=bottom;verticalAlign=top;html=1;outlineConnect=0;fontSize=12;strokeWidth=2;strokeColor=#3F1069;rotation=15;fillColor=#FFCC99;" vertex="1" parent="1">
          <mxGeometry x="-310" y="400" width="20" height="40" as="geometry" />
        </mxCell>
        <mxCell id="Y6LKRXekxdMPDzCNQJSn-69" value="" style="shape=umlActor;verticalLabelPosition=bottom;verticalAlign=top;html=1;outlineConnect=0;fontSize=12;strokeWidth=2;strokeColor=#3F1069;rotation=-15;fillColor=#99CCFF;" vertex="1" parent="1">
          <mxGeometry x="-340" y="400" width="20" height="40" as="geometry" />
        </mxCell>
        <mxCell id="Y6LKRXekxdMPDzCNQJSn-70" value="&lt;div&gt;&lt;br&gt;&lt;/div&gt;" style="ellipse;whiteSpace=wrap;html=1;aspect=fixed;strokeColor=#d79b00;fillColor=#ffe6cc;strokeWidth=3;verticalAlign=middle;labelPosition=center;verticalLabelPosition=bottom;align=center;" vertex="1" parent="1">
          <mxGeometry x="-340" y="340" width="40" height="40" as="geometry" />
        </mxCell>
        <mxCell id="Y6LKRXekxdMPDzCNQJSn-71" value="&lt;span style=&quot;font-size: 28px;&quot;&gt;&lt;b&gt;Final check&lt;/b&gt;&lt;/span&gt;" style="text;html=1;align=left;verticalAlign=middle;whiteSpace=wrap;rounded=0;rotation=-45;" vertex="1" parent="1">
          <mxGeometry x="-310" y="230" width="190" height="30" as="geometry" />
        </mxCell>
        <mxCell id="Y6LKRXekxdMPDzCNQJSn-72" value="" style="endArrow=open;html=1;rounded=0;curved=1;endFill=0;strokeWidth=1;sketch=1;curveFitting=1;jiggle=2;" edge="1" parent="1">
          <mxGeometry width="50" height="50" relative="1" as="geometry">
            <mxPoint x="-700" y="500" as="sourcePoint" />
            <mxPoint x="-650" y="450" as="targetPoint" />
            <Array as="points">
              <mxPoint x="-680" y="470" />
            </Array>
          </mxGeometry>
        </mxCell>
        <mxCell id="Y6LKRXekxdMPDzCNQJSn-73" value="author" style="text;html=1;align=center;verticalAlign=middle;whiteSpace=wrap;rounded=0;fontSize=18;fontFamily=Bradley Hand;" vertex="1" parent="1">
          <mxGeometry x="-740" y="500" width="60" height="30" as="geometry" />
        </mxCell>
        <mxCell id="Y6LKRXekxdMPDzCNQJSn-74" value="" style="endArrow=open;html=1;rounded=0;curved=1;endFill=0;sketch=1;curveFitting=1;jiggle=2;" edge="1" parent="1">
          <mxGeometry width="50" height="50" relative="1" as="geometry">
            <mxPoint x="-430" y="500" as="sourcePoint" />
            <mxPoint x="-460" y="450" as="targetPoint" />
            <Array as="points">
              <mxPoint x="-440" y="460" />
            </Array>
          </mxGeometry>
        </mxCell>
        <mxCell id="Y6LKRXekxdMPDzCNQJSn-75" value="reviewer&lt;div&gt;(expert)&lt;/div&gt;" style="text;html=1;align=center;verticalAlign=middle;whiteSpace=wrap;rounded=0;fontSize=18;fontFamily=Bradley Hand;" vertex="1" parent="1">
          <mxGeometry x="-460" y="510" width="60" height="30" as="geometry" />
        </mxCell>
        <mxCell id="Y6LKRXekxdMPDzCNQJSn-78" style="edgeStyle=none;rounded=0;orthogonalLoop=1;jettySize=auto;html=1;exitX=1;exitY=0.5;exitDx=0;exitDy=0;entryX=0;entryY=0.5;entryDx=0;entryDy=0;strokeWidth=4;endArrow=blockThin;endFill=1;" edge="1" parent="1" source="Y6LKRXekxdMPDzCNQJSn-39" target="Y6LKRXekxdMPDzCNQJSn-40">
          <mxGeometry relative="1" as="geometry">
            <mxPoint x="-610" y="370" as="sourcePoint" />
            <mxPoint x="-570" y="370" as="targetPoint" />
          </mxGeometry>
        </mxCell>
        <mxCell id="Y6LKRXekxdMPDzCNQJSn-79" style="edgeStyle=none;rounded=0;orthogonalLoop=1;jettySize=auto;html=1;exitX=1;exitY=0.5;exitDx=0;exitDy=0;entryX=0;entryY=0.5;entryDx=0;entryDy=0;strokeWidth=4;endArrow=blockThin;endFill=1;" edge="1" parent="1" source="Y6LKRXekxdMPDzCNQJSn-40" target="Y6LKRXekxdMPDzCNQJSn-44">
          <mxGeometry relative="1" as="geometry">
            <mxPoint x="-530" y="370" as="sourcePoint" />
            <mxPoint x="-490" y="370" as="targetPoint" />
          </mxGeometry>
        </mxCell>
        <mxCell id="Y6LKRXekxdMPDzCNQJSn-80" style="edgeStyle=none;rounded=0;orthogonalLoop=1;jettySize=auto;html=1;exitX=1;exitY=0.5;exitDx=0;exitDy=0;entryX=0;entryY=0.5;entryDx=0;entryDy=0;strokeWidth=4;endArrow=blockThin;endFill=1;" edge="1" parent="1" source="Y6LKRXekxdMPDzCNQJSn-44" target="Y6LKRXekxdMPDzCNQJSn-70">
          <mxGeometry relative="1" as="geometry">
            <mxPoint x="-450" y="370" as="sourcePoint" />
            <mxPoint x="-410" y="370" as="targetPoint" />
          </mxGeometry>
        </mxCell>
        <mxCell id="Y6LKRXekxdMPDzCNQJSn-81" style="edgeStyle=none;rounded=0;orthogonalLoop=1;jettySize=auto;html=1;exitX=1;exitY=0.5;exitDx=0;exitDy=0;entryX=0;entryY=0.5;entryDx=0;entryDy=0;strokeWidth=4;endArrow=blockThin;endFill=1;" edge="1" parent="1" source="Y6LKRXekxdMPDzCNQJSn-70" target="Y6LKRXekxdMPDzCNQJSn-52">
          <mxGeometry relative="1" as="geometry">
            <mxPoint x="-370" y="370" as="sourcePoint" />
            <mxPoint x="-330" y="370" as="targetPoint" />
          </mxGeometry>
        </mxCell>
        <mxCell id="IxUE4use_KOGvq_r4ATN-2" value="" style="sketch=0;outlineConnect=0;fontColor=#232F3E;gradientColor=none;strokeColor=#6C8EBF;fillColor=none;dashed=0;verticalLabelPosition=bottom;verticalAlign=top;align=center;html=1;fontSize=12;fontStyle=0;aspect=fixed;shape=mxgraph.aws4.resourceIcon;resIcon=mxgraph.aws4.automation;" vertex="1" parent="1">
          <mxGeometry x="-590" y="330" width="60" height="60" as="geometry" />
        </mxCell>
        <mxCell id="Y6LKRXekxdMPDzCNQJSn-24" value="risk" parent="0" />
        <mxCell id="Y6LKRXekxdMPDzCNQJSn-90" value="" style="ellipse;whiteSpace=wrap;html=1;strokeColor=#FF3333;fillColor=#FFA3A3;strokeWidth=3;fillStyle=hatch;gradientColor=none;shadow=0;sketch=1;curveFitting=1;jiggle=2;" vertex="1" parent="Y6LKRXekxdMPDzCNQJSn-24">
          <mxGeometry x="-360" y="320" width="160" height="80" as="geometry" />
        </mxCell>
        <mxCell id="Y6LKRXekxdMPDzCNQJSn-92" value="&lt;font color=&quot;#ff3333&quot;&gt;risk!!&lt;/font&gt;" style="text;html=1;align=center;verticalAlign=middle;whiteSpace=wrap;rounded=0;fontSize=28;fontFamily=Bradley Hand;" vertex="1" parent="Y6LKRXekxdMPDzCNQJSn-24">
          <mxGeometry x="-210" y="430" width="60" height="30" as="geometry" />
        </mxCell>
        <mxCell id="Y6LKRXekxdMPDzCNQJSn-94" value="" style="endArrow=open;html=1;rounded=0;curved=1;endFill=0;strokeColor=#FF3333;strokeWidth=3;entryX=0.966;entryY=0.744;entryDx=0;entryDy=0;entryPerimeter=0;sketch=1;curveFitting=1;jiggle=2;" edge="1" parent="Y6LKRXekxdMPDzCNQJSn-24" target="Y6LKRXekxdMPDzCNQJSn-90">
          <mxGeometry width="50" height="50" relative="1" as="geometry">
            <mxPoint x="-180" y="430" as="sourcePoint" />
            <mxPoint x="-180" y="610" as="targetPoint" />
            <Array as="points">
              <mxPoint x="-180" y="400" />
            </Array>
          </mxGeometry>
        </mxCell>
        <mxCell id="Y6LKRXekxdMPDzCNQJSn-12" value="focus" parent="0" />
        <mxCell id="Y6LKRXekxdMPDzCNQJSn-86" value="" style="endArrow=open;html=1;rounded=0;curved=1;endFill=0;strokeColor=#FF9933;strokeWidth=3;sketch=1;curveFitting=1;jiggle=2;" edge="1" parent="Y6LKRXekxdMPDzCNQJSn-12">
          <mxGeometry width="50" height="50" relative="1" as="geometry">
            <mxPoint x="-430" y="150" as="sourcePoint" />
            <mxPoint x="-470" y="300" as="targetPoint" />
            <Array as="points">
              <mxPoint x="-460" y="170" />
            </Array>
          </mxGeometry>
        </mxCell>
        <mxCell id="Y6LKRXekxdMPDzCNQJSn-87" value="" style="endArrow=open;html=1;rounded=0;curved=1;endFill=0;strokeColor=#FF9933;strokeWidth=3;sketch=1;curveFitting=1;jiggle=2;" edge="1" parent="Y6LKRXekxdMPDzCNQJSn-12">
          <mxGeometry width="50" height="50" relative="1" as="geometry">
            <mxPoint x="-350" y="150" as="sourcePoint" />
            <mxPoint x="-310" y="310" as="targetPoint" />
            <Array as="points">
              <mxPoint x="-310" y="170" />
            </Array>
          </mxGeometry>
        </mxCell>
        <mxCell id="Y6LKRXekxdMPDzCNQJSn-88" value="&lt;font color=&quot;#ff9933&quot;&gt;focus!!&lt;/font&gt;" style="text;html=1;align=center;verticalAlign=middle;whiteSpace=wrap;rounded=0;fontSize=28;fontFamily=Bradley Hand;fontStyle=1" vertex="1" parent="Y6LKRXekxdMPDzCNQJSn-12">
          <mxGeometry x="-413" y="120" width="60" height="30" as="geometry" />
        </mxCell>
        <mxCell id="IxUE4use_KOGvq_r4ATN-3" value="" style="sketch=0;outlineConnect=0;fontColor=#232F3E;gradientColor=none;strokeColor=#6C8EBF;fillColor=none;dashed=0;verticalLabelPosition=bottom;verticalAlign=top;align=center;html=1;fontSize=12;fontStyle=0;aspect=fixed;shape=mxgraph.aws4.resourceIcon;resIcon=mxgraph.aws4.automation;" vertex="1" parent="Y6LKRXekxdMPDzCNQJSn-12">
          <mxGeometry x="-270" y="330" width="60" height="60" as="geometry" />
        </mxCell>
        <mxCell id="Y6LKRXekxdMPDzCNQJSn-36" value="feedback" parent="0" />
        <mxCell id="Y6LKRXekxdMPDzCNQJSn-76" value="" style="endArrow=none;html=1;rounded=0;curved=1;strokeWidth=3;endFill=0;startArrow=open;startFill=0;strokeColor=#FF9933;sketch=1;curveFitting=1;jiggle=2;" edge="1" parent="Y6LKRXekxdMPDzCNQJSn-36">
          <mxGeometry width="50" height="50" relative="1" as="geometry">
            <mxPoint x="-640" y="460" as="sourcePoint" />
            <mxPoint x="-490" y="460" as="targetPoint" />
            <Array as="points">
              <mxPoint x="-640" y="500" />
              <mxPoint x="-570" y="530" />
              <mxPoint x="-490" y="500" />
            </Array>
          </mxGeometry>
        </mxCell>
        <mxCell id="Y6LKRXekxdMPDzCNQJSn-82" value="&lt;font color=&quot;#ff9933&quot;&gt;&quot;please fix this&quot;&lt;/font&gt;" style="text;html=1;align=center;verticalAlign=middle;whiteSpace=wrap;rounded=0;fontColor=#FF3333;fontSize=18;fontFamily=Bradley Hand;" vertex="1" parent="Y6LKRXekxdMPDzCNQJSn-36">
          <mxGeometry x="-620" y="520" width="140" height="30" as="geometry" />
        </mxCell>
        <mxCell id="Y6LKRXekxdMPDzCNQJSn-83" value="" style="endArrow=none;html=1;rounded=0;curved=1;strokeWidth=3;endFill=0;startArrow=open;startFill=0;strokeColor=#FF9933;sketch=1;curveFitting=1;jiggle=2;" edge="1" parent="Y6LKRXekxdMPDzCNQJSn-36">
          <mxGeometry width="50" height="50" relative="1" as="geometry">
            <mxPoint x="-650" y="480" as="sourcePoint" />
            <mxPoint x="-320" y="460" as="targetPoint" />
            <Array as="points">
              <mxPoint x="-650" y="550" />
              <mxPoint x="-470" y="600" />
              <mxPoint x="-320" y="520" />
            </Array>
          </mxGeometry>
        </mxCell>
        <mxCell id="Y6LKRXekxdMPDzCNQJSn-84" value="&lt;font face=&quot;Bradley Hand&quot; color=&quot;#ff9933&quot;&gt;&quot;this does not look right&quot;&lt;/font&gt;" style="text;html=1;align=center;verticalAlign=middle;whiteSpace=wrap;rounded=0;fontColor=#FF3333;fontSize=18;" vertex="1" parent="Y6LKRXekxdMPDzCNQJSn-36">
          <mxGeometry x="-590" y="590" width="220" height="30" as="geometry" />
        </mxCell>
      </root>
    </mxGraphModel>
  </diagram>
  <diagram name="Improved" id="QwW-A9LMvRDwvo3oiFJJ">
    <mxGraphModel dx="2754" dy="864" grid="1" gridSize="10" guides="1" tooltips="1" connect="1" arrows="1" fold="1" page="1" pageScale="1" pageWidth="827" pageHeight="1169" math="0" shadow="0">
      <root>
        <mxCell id="flW_NmEJ6sihE7c7geGE-0" />
        <mxCell id="flW_NmEJ6sihE7c7geGE-1" style="" parent="flW_NmEJ6sihE7c7geGE-0" />
        <mxCell id="6q_Oo2N4cUt3YWuUeqqL-6" value="&lt;div&gt;&lt;br&gt;&lt;/div&gt;" style="ellipse;whiteSpace=wrap;html=1;aspect=fixed;strokeColor=#6c8ebf;fillColor=#dae8fc;strokeWidth=3;verticalAlign=middle;labelPosition=center;verticalLabelPosition=bottom;align=center;" vertex="1" parent="flW_NmEJ6sihE7c7geGE-1">
          <mxGeometry x="-580" y="340" width="40" height="40" as="geometry" />
        </mxCell>
        <mxCell id="flW_NmEJ6sihE7c7geGE-2" value="" style="shape=umlActor;verticalLabelPosition=bottom;verticalAlign=top;html=1;outlineConnect=0;fontSize=12;strokeWidth=2;strokeColor=#3F1069;rotation=15;fillColor=#FFCC99;" vertex="1" parent="flW_NmEJ6sihE7c7geGE-1">
          <mxGeometry x="-480" y="400" width="20" height="40" as="geometry" />
        </mxCell>
        <mxCell id="flW_NmEJ6sihE7c7geGE-3" style="edgeStyle=none;rounded=0;orthogonalLoop=1;jettySize=auto;html=1;exitX=1;exitY=0.5;exitDx=0;exitDy=0;entryX=0;entryY=0.5;entryDx=0;entryDy=0;strokeWidth=4;endArrow=blockThin;endFill=1;" edge="1" parent="flW_NmEJ6sihE7c7geGE-1" source="flW_NmEJ6sihE7c7geGE-4" target="flW_NmEJ6sihE7c7geGE-5">
          <mxGeometry relative="1" as="geometry" />
        </mxCell>
        <mxCell id="flW_NmEJ6sihE7c7geGE-4" value="&lt;div&gt;&lt;br&gt;&lt;/div&gt;" style="ellipse;whiteSpace=wrap;html=1;aspect=fixed;strokeColor=#6c8ebf;fillColor=#dae8fc;strokeWidth=3;verticalAlign=middle;labelPosition=center;verticalLabelPosition=bottom;align=center;" vertex="1" parent="flW_NmEJ6sihE7c7geGE-1">
          <mxGeometry x="-740" y="340" width="40" height="40" as="geometry" />
        </mxCell>
        <mxCell id="flW_NmEJ6sihE7c7geGE-5" value="&lt;div&gt;&lt;br&gt;&lt;/div&gt;" style="ellipse;whiteSpace=wrap;html=1;aspect=fixed;strokeColor=#6c8ebf;fillColor=#dae8fc;strokeWidth=3;verticalAlign=middle;labelPosition=center;verticalLabelPosition=bottom;align=center;" vertex="1" parent="flW_NmEJ6sihE7c7geGE-1">
          <mxGeometry x="-660" y="340" width="40" height="40" as="geometry" />
        </mxCell>
        <mxCell id="flW_NmEJ6sihE7c7geGE-6" value="&lt;div&gt;&lt;br&gt;&lt;/div&gt;" style="ellipse;whiteSpace=wrap;html=1;aspect=fixed;strokeColor=#d79b00;fillColor=#ffe6cc;strokeWidth=3;verticalAlign=middle;labelPosition=center;verticalLabelPosition=bottom;align=center;" vertex="1" parent="flW_NmEJ6sihE7c7geGE-1">
          <mxGeometry x="-500" y="340" width="40" height="40" as="geometry" />
        </mxCell>
        <mxCell id="flW_NmEJ6sihE7c7geGE-7" value="&lt;span style=&quot;font-size: 28px;&quot;&gt;draft pull request&lt;/span&gt;" style="text;html=1;align=left;verticalAlign=middle;whiteSpace=wrap;rounded=0;rotation=-45;" vertex="1" parent="flW_NmEJ6sihE7c7geGE-1">
          <mxGeometry x="-720" y="219.39" width="220" height="30" as="geometry" />
        </mxCell>
        <mxCell id="flW_NmEJ6sihE7c7geGE-8" value="&lt;span style=&quot;font-size: 28px;&quot;&gt;plan&lt;/span&gt;" style="text;html=1;align=left;verticalAlign=middle;whiteSpace=wrap;rounded=0;rotation=-45;" vertex="1" parent="flW_NmEJ6sihE7c7geGE-1">
          <mxGeometry x="-640" y="230" width="190" height="30" as="geometry" />
        </mxCell>
        <mxCell id="flW_NmEJ6sihE7c7geGE-9" value="&lt;span style=&quot;font-size: 28px;&quot;&gt;&lt;b&gt;Pull Request&lt;/b&gt;&lt;/span&gt;" style="text;html=1;align=left;verticalAlign=middle;whiteSpace=wrap;rounded=0;rotation=-45;" vertex="1" parent="flW_NmEJ6sihE7c7geGE-1">
          <mxGeometry x="-470" y="230" width="190" height="30" as="geometry" />
        </mxCell>
        <mxCell id="flW_NmEJ6sihE7c7geGE-10" value="&lt;div&gt;&lt;br&gt;&lt;/div&gt;" style="ellipse;whiteSpace=wrap;html=1;aspect=fixed;strokeColor=#6c8ebf;fillColor=#dae8fc;strokeWidth=3;verticalAlign=middle;labelPosition=center;verticalLabelPosition=bottom;align=center;" vertex="1" parent="flW_NmEJ6sihE7c7geGE-1">
          <mxGeometry x="-420" y="340" width="40" height="40" as="geometry" />
        </mxCell>
        <mxCell id="flW_NmEJ6sihE7c7geGE-11" value="&lt;span style=&quot;font-size: 28px;&quot;&gt;merging&lt;/span&gt;" style="text;html=1;align=left;verticalAlign=middle;whiteSpace=wrap;rounded=0;rotation=-45;" vertex="1" parent="flW_NmEJ6sihE7c7geGE-1">
          <mxGeometry x="-390" y="230" width="190" height="30" as="geometry" />
        </mxCell>
        <mxCell id="flW_NmEJ6sihE7c7geGE-12" value="&lt;div&gt;&lt;br&gt;&lt;/div&gt;" style="ellipse;whiteSpace=wrap;html=1;aspect=fixed;strokeColor=#6c8ebf;fillColor=#dae8fc;strokeWidth=3;verticalAlign=middle;labelPosition=center;verticalLabelPosition=bottom;align=center;" vertex="1" parent="flW_NmEJ6sihE7c7geGE-1">
          <mxGeometry x="-340" y="340" width="40" height="40" as="geometry" />
        </mxCell>
        <mxCell id="flW_NmEJ6sihE7c7geGE-13" value="&lt;span style=&quot;font-size: 28px;&quot;&gt;apply&lt;/span&gt;" style="text;html=1;align=left;verticalAlign=middle;whiteSpace=wrap;rounded=0;rotation=-45;" vertex="1" parent="flW_NmEJ6sihE7c7geGE-1">
          <mxGeometry x="-320" y="230" width="190" height="30" as="geometry" />
        </mxCell>
        <mxCell id="flW_NmEJ6sihE7c7geGE-14" value="" style="shape=umlActor;verticalLabelPosition=bottom;verticalAlign=top;html=1;outlineConnect=0;fontSize=12;strokeWidth=2;strokeColor=#3F1069;rotation=-15;fillColor=#99CCFF;" vertex="1" parent="flW_NmEJ6sihE7c7geGE-1">
          <mxGeometry x="-890" y="400" width="20" height="40" as="geometry" />
        </mxCell>
        <mxCell id="flW_NmEJ6sihE7c7geGE-15" value="" style="shape=umlActor;verticalLabelPosition=bottom;verticalAlign=top;html=1;outlineConnect=0;fontSize=12;strokeWidth=2;strokeColor=#3F1069;rotation=-15;fillColor=#99CCFF;" vertex="1" parent="flW_NmEJ6sihE7c7geGE-1">
          <mxGeometry x="-510" y="400" width="20" height="40" as="geometry" />
        </mxCell>
        <mxCell id="flW_NmEJ6sihE7c7geGE-20" value="" style="endArrow=open;html=1;rounded=0;curved=1;endFill=0;strokeWidth=1;sketch=1;curveFitting=1;jiggle=2;" edge="1" parent="flW_NmEJ6sihE7c7geGE-1">
          <mxGeometry width="50" height="50" relative="1" as="geometry">
            <mxPoint x="-940" y="500" as="sourcePoint" />
            <mxPoint x="-890" y="450" as="targetPoint" />
            <Array as="points">
              <mxPoint x="-920" y="470" />
            </Array>
          </mxGeometry>
        </mxCell>
        <mxCell id="flW_NmEJ6sihE7c7geGE-21" value="author" style="text;html=1;align=center;verticalAlign=middle;whiteSpace=wrap;rounded=0;fontSize=18;fontFamily=Bradley Hand;" vertex="1" parent="flW_NmEJ6sihE7c7geGE-1">
          <mxGeometry x="-980" y="500" width="60" height="30" as="geometry" />
        </mxCell>
        <mxCell id="flW_NmEJ6sihE7c7geGE-22" value="" style="endArrow=open;html=1;rounded=0;curved=1;endFill=0;sketch=1;curveFitting=1;jiggle=2;" edge="1" parent="flW_NmEJ6sihE7c7geGE-1">
          <mxGeometry width="50" height="50" relative="1" as="geometry">
            <mxPoint x="-430" y="500" as="sourcePoint" />
            <mxPoint x="-460" y="450" as="targetPoint" />
            <Array as="points">
              <mxPoint x="-440" y="460" />
            </Array>
          </mxGeometry>
        </mxCell>
        <mxCell id="flW_NmEJ6sihE7c7geGE-23" value="reviewer&lt;div&gt;(expert)&lt;/div&gt;" style="text;html=1;align=center;verticalAlign=middle;whiteSpace=wrap;rounded=0;fontSize=18;fontFamily=Bradley Hand;" vertex="1" parent="flW_NmEJ6sihE7c7geGE-1">
          <mxGeometry x="-460" y="510" width="60" height="30" as="geometry" />
        </mxCell>
        <mxCell id="flW_NmEJ6sihE7c7geGE-25" style="edgeStyle=none;rounded=0;orthogonalLoop=1;jettySize=auto;html=1;exitX=1;exitY=0.5;exitDx=0;exitDy=0;entryX=0;entryY=0.5;entryDx=0;entryDy=0;strokeWidth=4;endArrow=blockThin;endFill=1;" edge="1" parent="flW_NmEJ6sihE7c7geGE-1" source="flW_NmEJ6sihE7c7geGE-6" target="flW_NmEJ6sihE7c7geGE-10">
          <mxGeometry relative="1" as="geometry">
            <mxPoint x="-530" y="370" as="sourcePoint" />
            <mxPoint x="-490" y="370" as="targetPoint" />
          </mxGeometry>
        </mxCell>
        <mxCell id="flW_NmEJ6sihE7c7geGE-26" style="edgeStyle=none;rounded=0;orthogonalLoop=1;jettySize=auto;html=1;exitX=1;exitY=0.5;exitDx=0;exitDy=0;entryX=0;entryY=0.5;entryDx=0;entryDy=0;strokeWidth=4;endArrow=blockThin;endFill=1;" edge="1" parent="flW_NmEJ6sihE7c7geGE-1" source="flW_NmEJ6sihE7c7geGE-10">
          <mxGeometry relative="1" as="geometry">
            <mxPoint x="-450" y="370" as="sourcePoint" />
            <mxPoint x="-340" y="360" as="targetPoint" />
          </mxGeometry>
        </mxCell>
        <mxCell id="ZvRNgm5aPkhRRLFWVhNo-0" value="&lt;div&gt;&lt;br&gt;&lt;/div&gt;" style="ellipse;whiteSpace=wrap;html=1;aspect=fixed;strokeColor=#6c8ebf;fillColor=#dae8fc;strokeWidth=3;verticalAlign=middle;labelPosition=center;verticalLabelPosition=bottom;align=center;" vertex="1" parent="flW_NmEJ6sihE7c7geGE-1">
          <mxGeometry x="-820" y="340" width="40" height="40" as="geometry" />
        </mxCell>
        <mxCell id="ZvRNgm5aPkhRRLFWVhNo-1" value="&lt;span style=&quot;font-size: 28px;&quot;&gt;authoring&lt;/span&gt;" style="text;html=1;align=left;verticalAlign=middle;whiteSpace=wrap;rounded=0;rotation=-45;" vertex="1" parent="flW_NmEJ6sihE7c7geGE-1">
          <mxGeometry x="-880" y="230" width="190" height="30" as="geometry" />
        </mxCell>
        <mxCell id="ZvRNgm5aPkhRRLFWVhNo-2" value="&lt;div&gt;&lt;br&gt;&lt;/div&gt;" style="ellipse;whiteSpace=wrap;html=1;aspect=fixed;strokeColor=#6c8ebf;fillColor=#dae8fc;strokeWidth=3;verticalAlign=middle;labelPosition=center;verticalLabelPosition=bottom;align=center;" vertex="1" parent="flW_NmEJ6sihE7c7geGE-1">
          <mxGeometry x="-900" y="340" width="40" height="40" as="geometry" />
        </mxCell>
        <mxCell id="ZvRNgm5aPkhRRLFWVhNo-3" value="&lt;span style=&quot;font-size: 28px;&quot;&gt;linting&lt;/span&gt;" style="text;html=1;align=left;verticalAlign=middle;whiteSpace=wrap;rounded=0;rotation=-45;" vertex="1" parent="flW_NmEJ6sihE7c7geGE-1">
          <mxGeometry x="-802.93" y="222.93" width="210" height="30" as="geometry" />
        </mxCell>
        <mxCell id="ZvRNgm5aPkhRRLFWVhNo-4" style="edgeStyle=none;rounded=0;orthogonalLoop=1;jettySize=auto;html=1;exitX=1;exitY=0.5;exitDx=0;exitDy=0;entryX=0;entryY=0.5;entryDx=0;entryDy=0;strokeWidth=4;endArrow=blockThin;endFill=1;" edge="1" parent="flW_NmEJ6sihE7c7geGE-1" source="ZvRNgm5aPkhRRLFWVhNo-0" target="flW_NmEJ6sihE7c7geGE-4">
          <mxGeometry relative="1" as="geometry">
            <mxPoint x="-690" y="370" as="sourcePoint" />
            <mxPoint x="-650" y="370" as="targetPoint" />
          </mxGeometry>
        </mxCell>
        <mxCell id="ZvRNgm5aPkhRRLFWVhNo-5" style="edgeStyle=none;rounded=0;orthogonalLoop=1;jettySize=auto;html=1;exitX=1;exitY=0.5;exitDx=0;exitDy=0;entryX=0;entryY=0.5;entryDx=0;entryDy=0;strokeWidth=4;endArrow=blockThin;endFill=1;" edge="1" parent="flW_NmEJ6sihE7c7geGE-1" source="ZvRNgm5aPkhRRLFWVhNo-2" target="ZvRNgm5aPkhRRLFWVhNo-0">
          <mxGeometry relative="1" as="geometry">
            <mxPoint x="-770" y="370" as="sourcePoint" />
            <mxPoint x="-730" y="370" as="targetPoint" />
          </mxGeometry>
        </mxCell>
        <mxCell id="UJiLJc5vm655W8qPBjbP-0" value="" style="endArrow=none;html=1;rounded=0;curved=1;strokeWidth=1;endFill=0;startArrow=open;startFill=0;strokeColor=#000000;sketch=1;curveFitting=1;jiggle=2;" edge="1" parent="flW_NmEJ6sihE7c7geGE-1">
          <mxGeometry width="50" height="50" relative="1" as="geometry">
            <mxPoint x="-870" y="390" as="sourcePoint" />
            <mxPoint x="-570" y="400" as="targetPoint" />
            <Array as="points">
              <mxPoint x="-840" y="420" />
              <mxPoint x="-720" y="440" />
              <mxPoint x="-600" y="430" />
            </Array>
          </mxGeometry>
        </mxCell>
        <mxCell id="UJiLJc5vm655W8qPBjbP-1" value="fix based on plan output (author)" style="text;html=1;align=center;verticalAlign=middle;whiteSpace=wrap;rounded=0;fontSize=18;fontFamily=Bradley Hand;" vertex="1" parent="flW_NmEJ6sihE7c7geGE-1">
          <mxGeometry x="-827" y="450" width="230" height="30" as="geometry" />
        </mxCell>
        <mxCell id="6q_Oo2N4cUt3YWuUeqqL-4" value="" style="sketch=0;outlineConnect=0;fontColor=#232F3E;gradientColor=none;strokeColor=#6C8EBF;fillColor=none;dashed=0;verticalLabelPosition=bottom;verticalAlign=top;align=center;html=1;fontSize=12;fontStyle=0;aspect=fixed;shape=mxgraph.aws4.resourceIcon;resIcon=mxgraph.aws4.automation;" vertex="1" parent="flW_NmEJ6sihE7c7geGE-1">
          <mxGeometry x="-590" y="330" width="60" height="60" as="geometry" />
        </mxCell>
        <mxCell id="6q_Oo2N4cUt3YWuUeqqL-9" style="edgeStyle=none;rounded=0;orthogonalLoop=1;jettySize=auto;html=1;exitX=1;exitY=0.5;exitDx=0;exitDy=0;entryX=0;entryY=0.5;entryDx=0;entryDy=0;strokeWidth=4;endArrow=blockThin;endFill=1;" edge="1" parent="flW_NmEJ6sihE7c7geGE-1">
          <mxGeometry relative="1" as="geometry">
            <mxPoint x="-620" y="359.83" as="sourcePoint" />
            <mxPoint x="-580" y="359.83" as="targetPoint" />
          </mxGeometry>
        </mxCell>
        <mxCell id="6q_Oo2N4cUt3YWuUeqqL-11" style="edgeStyle=none;rounded=0;orthogonalLoop=1;jettySize=auto;html=1;exitX=1;exitY=0.5;exitDx=0;exitDy=0;entryX=0;entryY=0.5;entryDx=0;entryDy=0;strokeWidth=4;endArrow=blockThin;endFill=1;" edge="1" parent="flW_NmEJ6sihE7c7geGE-1">
          <mxGeometry relative="1" as="geometry">
            <mxPoint x="-540" y="359.83" as="sourcePoint" />
            <mxPoint x="-500" y="359.83" as="targetPoint" />
          </mxGeometry>
        </mxCell>
        <mxCell id="6q_Oo2N4cUt3YWuUeqqL-12" value="&lt;span style=&quot;font-size: 28px;&quot;&gt;policies&lt;/span&gt;" style="text;html=1;align=left;verticalAlign=middle;whiteSpace=wrap;rounded=0;rotation=-45;" vertex="1" parent="flW_NmEJ6sihE7c7geGE-1">
          <mxGeometry x="-575" y="219.39000000000001" width="210" height="30" as="geometry" />
        </mxCell>
        <mxCell id="flW_NmEJ6sihE7c7geGE-28" value="risk" parent="flW_NmEJ6sihE7c7geGE-0" />
        <mxCell id="flW_NmEJ6sihE7c7geGE-29" value="" style="ellipse;whiteSpace=wrap;html=1;strokeColor=#00D600;fillColor=#CCFFCC;strokeWidth=2;fillStyle=hatch;gradientColor=none;shadow=0;sketch=1;curveFitting=1;jiggle=2;" vertex="1" parent="flW_NmEJ6sihE7c7geGE-28">
          <mxGeometry x="-360" y="320" width="80" height="80" as="geometry" />
        </mxCell>
        <mxCell id="flW_NmEJ6sihE7c7geGE-30" value="&lt;font color=&quot;#00d600&quot;&gt;qpply equals plan&lt;/font&gt;" style="text;html=1;align=center;verticalAlign=middle;whiteSpace=wrap;rounded=0;fontSize=28;fontFamily=Bradley Hand;" vertex="1" parent="flW_NmEJ6sihE7c7geGE-28">
          <mxGeometry x="-280" y="430" width="70" height="100" as="geometry" />
        </mxCell>
        <mxCell id="flW_NmEJ6sihE7c7geGE-31" value="" style="endArrow=open;html=1;rounded=0;curved=1;endFill=0;strokeColor=#00D600;strokeWidth=2;entryX=0.966;entryY=0.744;entryDx=0;entryDy=0;entryPerimeter=0;sketch=1;curveFitting=1;jiggle=2;" edge="1" parent="flW_NmEJ6sihE7c7geGE-28" target="flW_NmEJ6sihE7c7geGE-29">
          <mxGeometry width="50" height="50" relative="1" as="geometry">
            <mxPoint x="-250" y="430" as="sourcePoint" />
            <mxPoint x="-180" y="610" as="targetPoint" />
            <Array as="points">
              <mxPoint x="-260" y="400" />
            </Array>
          </mxGeometry>
        </mxCell>
        <mxCell id="UJiLJc5vm655W8qPBjbP-4" value="" style="html=1;verticalLabelPosition=bottom;align=center;labelBackgroundColor=#ffffff;verticalAlign=top;strokeWidth=2;strokeColor=#000000;shadow=0;dashed=0;shape=mxgraph.ios7.icons.reload;rotation=50;sketch=1;curveFitting=1;jiggle=1;fillWeight=-1;" vertex="1" parent="flW_NmEJ6sihE7c7geGE-28">
          <mxGeometry x="-720" y="400" width="24" height="27" as="geometry" />
        </mxCell>
        <mxCell id="6q_Oo2N4cUt3YWuUeqqL-0" value="" style="sketch=0;outlineConnect=0;fontColor=#232F3E;gradientColor=none;strokeColor=#6C8EBF;fillColor=none;dashed=0;verticalLabelPosition=bottom;verticalAlign=top;align=center;html=1;fontSize=12;fontStyle=0;aspect=fixed;shape=mxgraph.aws4.resourceIcon;resIcon=mxgraph.aws4.automation;" vertex="1" parent="flW_NmEJ6sihE7c7geGE-28">
          <mxGeometry x="-670" y="330" width="60" height="60" as="geometry" />
        </mxCell>
        <mxCell id="6q_Oo2N4cUt3YWuUeqqL-1" value="" style="sketch=0;outlineConnect=0;fontColor=#232F3E;gradientColor=none;strokeColor=#6C8EBF;fillColor=none;dashed=0;verticalLabelPosition=bottom;verticalAlign=top;align=center;html=1;fontSize=12;fontStyle=0;aspect=fixed;shape=mxgraph.aws4.resourceIcon;resIcon=mxgraph.aws4.automation;" vertex="1" parent="flW_NmEJ6sihE7c7geGE-28">
          <mxGeometry x="-830" y="330" width="60" height="60" as="geometry" />
        </mxCell>
        <mxCell id="6q_Oo2N4cUt3YWuUeqqL-2" value="" style="sketch=0;outlineConnect=0;fontColor=#232F3E;gradientColor=none;strokeColor=#6C8EBF;fillColor=none;dashed=0;verticalLabelPosition=bottom;verticalAlign=top;align=center;html=1;fontSize=12;fontStyle=0;aspect=fixed;shape=mxgraph.aws4.resourceIcon;resIcon=mxgraph.aws4.automation;" vertex="1" parent="flW_NmEJ6sihE7c7geGE-28">
          <mxGeometry x="-350" y="330" width="60" height="60" as="geometry" />
        </mxCell>
        <mxCell id="flW_NmEJ6sihE7c7geGE-32" value="focus" parent="flW_NmEJ6sihE7c7geGE-0" />
        <mxCell id="flW_NmEJ6sihE7c7geGE-33" value="" style="endArrow=open;html=1;rounded=0;curved=1;endFill=0;strokeColor=#FF9933;strokeWidth=3;sketch=1;curveFitting=1;jiggle=2;" edge="1" parent="flW_NmEJ6sihE7c7geGE-32">
          <mxGeometry width="50" height="50" relative="1" as="geometry">
            <mxPoint x="-410" y="150" as="sourcePoint" />
            <mxPoint x="-470" y="300" as="targetPoint" />
            <Array as="points">
              <mxPoint x="-460" y="180" />
            </Array>
          </mxGeometry>
        </mxCell>
        <mxCell id="flW_NmEJ6sihE7c7geGE-35" value="&lt;font color=&quot;#ff9933&quot;&gt;focus!!&lt;/font&gt;" style="text;html=1;align=center;verticalAlign=middle;whiteSpace=wrap;rounded=0;fontSize=28;fontFamily=Bradley Hand;fontStyle=1" vertex="1" parent="flW_NmEJ6sihE7c7geGE-32">
          <mxGeometry x="-390" y="120" width="60" height="30" as="geometry" />
        </mxCell>
        <mxCell id="flW_NmEJ6sihE7c7geGE-36" value="feedback" parent="flW_NmEJ6sihE7c7geGE-0" />
        <mxCell id="flW_NmEJ6sihE7c7geGE-37" value="" style="endArrow=none;html=1;rounded=0;curved=1;strokeWidth=1;endFill=0;startArrow=open;startFill=0;strokeColor=#FF9933;sketch=1;curveFitting=1;jiggle=2;dashed=1;" edge="1" parent="flW_NmEJ6sihE7c7geGE-36">
          <mxGeometry width="50" height="50" relative="1" as="geometry">
            <mxPoint x="-860" y="450" as="sourcePoint" />
            <mxPoint x="-490" y="450" as="targetPoint" />
            <Array as="points">
              <mxPoint x="-840" y="480" />
              <mxPoint x="-700" y="530" />
              <mxPoint x="-540" y="490" />
            </Array>
          </mxGeometry>
        </mxCell>
        <mxCell id="flW_NmEJ6sihE7c7geGE-38" value="&lt;font color=&quot;#ff9933&quot;&gt;&quot;please fix this&quot; /&amp;nbsp;&lt;/font&gt;&lt;span style=&quot;color: rgb(255, 153, 51);&quot;&gt;&quot;this does not look right&quot;&lt;/span&gt;" style="text;html=1;align=center;verticalAlign=middle;whiteSpace=wrap;rounded=0;fontColor=#FF3333;fontSize=18;fontFamily=Bradley Hand;" vertex="1" parent="flW_NmEJ6sihE7c7geGE-36">
          <mxGeometry x="-860" y="530" width="360" height="30" as="geometry" />
        </mxCell>
      </root>
    </mxGraphModel>
  </diagram>
  <diagram id="Mhk_YExVfoWC8oMswFxH" name="Scope">
    <mxGraphModel dx="1100" dy="864" grid="1" gridSize="10" guides="1" tooltips="1" connect="1" arrows="1" fold="1" page="1" pageScale="1" pageWidth="827" pageHeight="1169" math="0" shadow="0">
      <root>
        <mxCell id="0" />
        <mxCell id="04fATagqTCZOxM2cOEqA-4" value="area pr" style="" parent="0" />
        <mxCell id="m64L5xS0HWTgjltY5Fg_-6" value="" style="rounded=0;whiteSpace=wrap;html=1;strokeColor=#007FFF;fillColor=#007FFF;sketch=1;curveFitting=1;jiggle=2;" vertex="1" parent="04fATagqTCZOxM2cOEqA-4">
          <mxGeometry x="110" y="430" width="420" height="50" as="geometry" />
        </mxCell>
        <mxCell id="m64L5xS0HWTgjltY5Fg_-8" value="area portal" style="" parent="0" />
        <mxCell id="m64L5xS0HWTgjltY5Fg_-9" value="" style="rounded=0;whiteSpace=wrap;html=1;strokeColor=#FF6666;fillColor=#FF6666;sketch=1;curveFitting=1;jiggle=2;rotation=-90;" vertex="1" parent="m64L5xS0HWTgjltY5Fg_-8">
          <mxGeometry x="325" y="357.5" width="117.5" height="127.5" as="geometry" />
        </mxCell>
        <mxCell id="1" value="lines" style="" parent="0" />
        <mxCell id="04fATagqTCZOxM2cOEqA-3" value="" style="endArrow=none;html=1;rounded=0;strokeWidth=3;" edge="1" parent="1">
          <mxGeometry width="50" height="50" relative="1" as="geometry">
            <mxPoint x="100" y="480" as="sourcePoint" />
            <mxPoint x="540" y="480" as="targetPoint" />
          </mxGeometry>
        </mxCell>
        <mxCell id="m64L5xS0HWTgjltY5Fg_-1" value="&lt;font style=&quot;font-size: 18px;&quot;&gt;scope&lt;/font&gt;" style="text;html=1;align=center;verticalAlign=middle;whiteSpace=wrap;rounded=0;rotation=0;" vertex="1" parent="1">
          <mxGeometry x="210" y="494" width="220" height="30" as="geometry" />
        </mxCell>
        <mxCell id="m64L5xS0HWTgjltY5Fg_-2" value="" style="endArrow=block;html=1;rounded=0;strokeWidth=2;endFill=1;" edge="1" parent="1">
          <mxGeometry width="50" height="50" relative="1" as="geometry">
            <mxPoint x="360" y="510" as="sourcePoint" />
            <mxPoint x="400" y="510" as="targetPoint" />
          </mxGeometry>
        </mxCell>
        <mxCell id="m64L5xS0HWTgjltY5Fg_-3" value="" style="endArrow=none;html=1;rounded=0;strokeWidth=2;endFill=0;startArrow=block;startFill=1;" edge="1" parent="1">
          <mxGeometry width="50" height="50" relative="1" as="geometry">
            <mxPoint x="240" y="510" as="sourcePoint" />
            <mxPoint x="280" y="510.5" as="targetPoint" />
          </mxGeometry>
        </mxCell>
        <mxCell id="m64L5xS0HWTgjltY5Fg_-4" value="&lt;span&gt;&lt;font style=&quot;font-size: 18px;&quot;&gt;DevEx&lt;/font&gt;&lt;/span&gt;" style="text;html=1;align=left;verticalAlign=middle;whiteSpace=wrap;rounded=0;rotation=0;fontSize=13;" vertex="1" parent="1">
          <mxGeometry x="30" y="440" width="110" height="30" as="geometry" />
        </mxCell>
        <mxCell id="m64L5xS0HWTgjltY5Fg_-5" value="" style="endArrow=block;html=1;rounded=0;strokeWidth=2;endFill=1;" edge="1" parent="1">
          <mxGeometry width="50" height="50" relative="1" as="geometry">
            <mxPoint x="60" y="430" as="sourcePoint" />
            <mxPoint x="60" y="390" as="targetPoint" />
          </mxGeometry>
        </mxCell>
        <mxCell id="m64L5xS0HWTgjltY5Fg_-7" value="annotations" parent="0" />
        <mxCell id="4hERXV1WJhcidA3au9N2-1" value="" style="endArrow=open;html=1;rounded=0;curved=1;endFill=0;strokeWidth=1;sketch=1;curveFitting=1;jiggle=2;" edge="1" parent="m64L5xS0HWTgjltY5Fg_-7">
          <mxGeometry width="50" height="50" relative="1" as="geometry">
            <mxPoint x="110" y="510" as="sourcePoint" />
            <mxPoint x="160" y="460" as="targetPoint" />
            <Array as="points">
              <mxPoint x="130" y="480" />
            </Array>
          </mxGeometry>
        </mxCell>
        <mxCell id="4hERXV1WJhcidA3au9N2-2" value="improved&lt;div&gt;pull requests&lt;/div&gt;" style="text;html=1;align=center;verticalAlign=middle;whiteSpace=wrap;rounded=0;fontSize=18;fontFamily=Bradley Hand;" vertex="1" parent="m64L5xS0HWTgjltY5Fg_-7">
          <mxGeometry x="70" y="520" width="110" height="30" as="geometry" />
        </mxCell>
        <mxCell id="m64L5xS0HWTgjltY5Fg_-16" value="" style="endArrow=open;html=1;rounded=0;curved=1;endFill=0;strokeWidth=1;sketch=1;curveFitting=1;jiggle=2;" edge="1" parent="m64L5xS0HWTgjltY5Fg_-7">
          <mxGeometry width="50" height="50" relative="1" as="geometry">
            <mxPoint x="500" y="500" as="sourcePoint" />
            <mxPoint x="430" y="380" as="targetPoint" />
            <Array as="points">
              <mxPoint x="490" y="440" />
            </Array>
          </mxGeometry>
        </mxCell>
        <mxCell id="m64L5xS0HWTgjltY5Fg_-17" value="Self-service workflow in portal" style="text;html=1;align=center;verticalAlign=middle;whiteSpace=wrap;rounded=0;fontSize=18;fontFamily=Bradley Hand;" vertex="1" parent="m64L5xS0HWTgjltY5Fg_-7">
          <mxGeometry x="440" y="520" width="150" height="30" as="geometry" />
        </mxCell>
        <mxCell id="m64L5xS0HWTgjltY5Fg_-18" value="cost" parent="0" />
        <mxCell id="m64L5xS0HWTgjltY5Fg_-19" value="" style="endArrow=none;html=1;rounded=0;dashed=1;" edge="1" parent="m64L5xS0HWTgjltY5Fg_-18">
          <mxGeometry width="50" height="50" relative="1" as="geometry">
            <mxPoint x="460" y="360" as="sourcePoint" />
            <mxPoint x="600" y="360" as="targetPoint" />
            <Array as="points" />
          </mxGeometry>
        </mxCell>
        <mxCell id="m64L5xS0HWTgjltY5Fg_-21" value="" style="endArrow=none;html=1;rounded=0;dashed=1;" edge="1" parent="m64L5xS0HWTgjltY5Fg_-18">
          <mxGeometry width="50" height="50" relative="1" as="geometry">
            <mxPoint x="540" y="430" as="sourcePoint" />
            <mxPoint x="600" y="430" as="targetPoint" />
          </mxGeometry>
        </mxCell>
        <mxCell id="m64L5xS0HWTgjltY5Fg_-22" value="cost of implementation" style="text;html=1;align=center;verticalAlign=middle;whiteSpace=wrap;rounded=0;fontSize=16;fontFamily=Bradley Hand;" vertex="1" parent="m64L5xS0HWTgjltY5Fg_-18">
          <mxGeometry x="580" y="380" width="150" height="30" as="geometry" />
        </mxCell>
        <mxCell id="m64L5xS0HWTgjltY5Fg_-24" value="" style="endArrow=open;html=1;rounded=0;curved=1;endFill=0;strokeWidth=1;sketch=1;curveFitting=1;jiggle=1;" edge="1" parent="m64L5xS0HWTgjltY5Fg_-18">
          <mxGeometry width="50" height="50" relative="1" as="geometry">
            <mxPoint x="610" y="390" as="sourcePoint" />
            <mxPoint x="590" y="370" as="targetPoint" />
            <Array as="points">
              <mxPoint x="610" y="380" />
            </Array>
          </mxGeometry>
        </mxCell>
        <mxCell id="m64L5xS0HWTgjltY5Fg_-25" value="" style="endArrow=open;html=1;rounded=0;curved=1;endFill=0;strokeWidth=1;sketch=1;curveFitting=1;jiggle=1;" edge="1" parent="m64L5xS0HWTgjltY5Fg_-18">
          <mxGeometry width="50" height="50" relative="1" as="geometry">
            <mxPoint x="609" y="413" as="sourcePoint" />
            <mxPoint x="589" y="423" as="targetPoint" />
            <Array as="points">
              <mxPoint x="599" y="423" />
            </Array>
          </mxGeometry>
        </mxCell>
      </root>
    </mxGraphModel>
  </diagram>
</mxfile>
